<svg xmlns="http://www.w3.org/2000/svg" style="display: none;">

  <!-- ⚡ Bolt -->
  <symbol id="sprite-bolt" viewBox="0 0 15.924 17.685">
    <path d="M6.694 0h5.9L8.77 5.054h7.153L3.246 17.685l3.866-8.518H0Z" fill="currentColor"/>
  </symbol>

  <!-- 🔵 Circle Line -->
  <symbol id="sprite-circleline" viewBox="0 0 20.617 20.616">
    <g fill="currentColor">
      <path d="m1210.308 2347.887-1.334-10.308h2.668Z" transform="translate(-1200 -2337.579)"/>
      <path d="m1210.308 2347.887-1.334 10.308h2.668Z" transform="translate(-1200 -2337.579)"/>
      <path d="m1210.309 2347.887 10.308-1.334v2.668Z" transform="translate(-1200 -2337.579)"/>
      <path d="m1210.308 2347.887-10.308-1.334v2.668Z" transform="translate(-1200 -2337.579)"/>
      <path d="m1210.309 2347.887 4-9.594 2.31 1.334Z" transform="translate(-1200 -2337.579)"/>
      <path d="m1210.309 2347.887-6.309 8.26 2.31 1.334Z" transform="translate(-1200 -2337.579)"/>
      <path d="m1210.308 2347.887 9.594 4-1.334 2.31Z" transform="translate(-1200 -2337.579)"/>
      <path d="m1210.308 2347.887-8.26-6.309-1.334 2.31Z" transform="translate(-1200 -2337.579)"/>
      <path d="m1210.308 2347.887-4-9.594-2.31 1.334Z" transform="translate(-1200 -2337.579)"/>
      <path d="m1210.308 2347.887 6.309 8.26-2.31 1.334Z" transform="translate(-1200 -2337.579)"/>
      <path d="m1210.308 2347.887-9.594 4 1.334 2.31Z" transform="translate(-1200 -2337.579)"/>
      <path d="m1210.308 2347.887 8.26-6.309 1.334 2.31Z" transform="translate(-1200 -2337.579)"/>
    </g>
  </symbol>

  <!-- 🔷 Diamond -->
  <symbol id="sprite-diamond" viewBox="0 0 55.262 68.791">
    <path d="M0 34.4C15.26 34.4 27.631 19 27.631 0c0 19 12.371 34.4 27.631 34.4-15.26 0-27.631 15.4-27.631 34.4C27.631 49.794 15.26 34.4 0 34.4Z" fill="currentColor"/>
  </symbol>

  <!-- 🌙 Halfmoon -->
  <symbol id="sprite-halfmoon" viewBox="0 0 16.879 16.248">
    <path d="M0 0v7.808a8.44 8.44 0 0 0 16.879 0V0A9.681 9.681 0 0 1 0 0Z" fill="currentColor"/>
  </symbol>

  <!-- ▶️ Play -->
  <symbol id="sprite-play" viewBox="0 0 45.927 45.927">
    <g fill="currentColor">
      <path d="M45.927 22.963 22.963 0 0 22.963Z" transform="rotate(90 22.963 22.964)"/>
      <path d="M45.927 45.926 22.963 22.963 0 45.926Z" transform="rotate(90 22.963 22.964)"/>
    </g>
  </symbol>

  <!-- ⭐ Star -->
  <symbol id="sprite-star" viewBox="0 0 58 58">
    <path d="M36.76 25.786C49.008 26.176 58 27.467 58 29s-8.992 2.824-21.24 3.214c8.385 8.937 13.83 16.208 12.746 17.292s-8.355-4.361-17.292-12.746C31.824 49.008 30.533 58 29 58s-2.824-8.992-3.214-21.24C16.849 45.145 9.578 50.59 8.494 49.506s4.361-8.355 12.746-17.292C8.992 31.824 0 30.533 0 29s8.992-2.824 21.24-3.214C12.855 16.849 7.41 9.578 8.494 8.494s8.355 4.361 17.292 12.746C26.176 8.992 27.467 0 29 0s2.824 8.992 3.214 21.24c8.937-8.385 16.208-13.83 17.292-12.746s-4.361 8.355-12.746 17.292Z" fill="currentColor"/>
  </symbol>

</svg>